{"extensionsUsed" : ["KHR_materials_pbrSpecularGlossiness"], "accessors" : [{"bufferView" : 0, "byteOffset" : 0, "componentType" : 5123, "count" : 1584, "type" : "SCALAR", "max" : [1309], "min" : [0]}, {"bufferView" : 1, "byteOffset" : 0, "componentType" : 5126, "count" : 1310, "type" : "VEC3", "max" : [1.6223256587982178, 9.000465393066406, 4.063651084899902], "min" : [-1.6223256587982178, 5.755814552307129, 2.307588815689087], "name" : "POSITION"}, {"bufferView" : 1, "byteOffset" : 12, "componentType" : 5126, "count" : 1310, "type" : "VEC3", "max" : [1.0000044107437134, 1.0000044107437134, 1.0000044107437134], "min" : [-1.0000044107437134, -1.0000044107437134, -1.0000044107437134], "name" : "NORMAL"}, {"bufferView" : 1, "byteOffset" : 24, "componentType" : 5126, "count" : 1310, "type" : "VEC2", "max" : [0.8486934900283813, 0.4486925005912781], "min" : [0.6514700055122375, 0.3513075113296509], "name" : "TEXCOORD_0"}, {"bufferView" : 0, "byteOffset" : 3168, "componentType" : 5123, "count" : 1584, "type" : "SCALAR", "max" : [1316], "min" : [0]}, {"bufferView" : 2, "byteOffset" : 0, "componentType" : 5126, "count" : 1317, "type" : "VEC3", "max" : [3.9938607215881348, 12, 4.506524562835693], "min" : [2.0061392784118652, 10, 3.8206787109375], "name" : "POSITION"}, {"bufferView" : 2, "byteOffset" : 12, "componentType" : 5126, "count" : 1317, "type" : "VEC3", "max" : [0.9938652515411377, 1.0000044107437134, 0.9998632073402405], "min" : [-0.9938652515411377, -1.0000044107437134, -0.9996622800827026], "name" : "NORMAL"}, {"bufferView" : 2, "byteOffset" : 24, "componentType" : 5126, "count" : 1317, "type" : "VEC2", "max" : [0.8279715180397034, 0.327969491481781], "min" : [0.6720304489135742, 0.27203047275543213], "name" : "TEXCOORD_0"}, {"bufferView" : 0, "byteOffset" : 6336, "componentType" : 5123, "count" : 1584, "type" : "SCALAR", "max" : [1319], "min" : [0]}, {"bufferView" : 3, "byteOffset" : 0, "componentType" : 5126, "count" : 1320, "type" : "VEC3", "max" : [-2.009140968322754, 12, 4.514901638031006], "min" : [-3.990859031677246, 10, 3.8123013973236084], "name" : "POSITION"}, {"bufferView" : 3, "byteOffset" : 12, "componentType" : 5126, "count" : 1320, "type" : "VEC3", "max" : [0.9908633232116699, 1.0000044107437134, 0.9999242424964905], "min" : [-0.9908632040023804, -1.0000044107437134, -0.99992436170578], "name" : "NORMAL"}, {"bufferView" : 3, "byteOffset" : 24, "componentType" : 5126, "count" : 1320, "type" : "VEC2", "max" : [0.8280014991760254, 0.22800052165985107], "min" : [0.6719989776611328, 0.1719995141029358], "name" : "TEXCOORD_0"}, {"bufferView" : 0, "byteOffset" : 9504, "componentType" : 5123, "count" : 11520, "type" : "SCALAR", "max" : [9692], "min" : [0]}, {"bufferView" : 4, "byteOffset" : 0, "componentType" : 5126, "count" : 9693, "type" : "VEC3", "max" : [14.568556785583496, 24.56855583190918, 1.0537385940551758], "min" : [-14.568559646606445, -4.568559169769287, -1.0537385940551758], "name" : "POSITION"}, {"bufferView" : 4, "byteOffset" : 12, "componentType" : 5126, "count" : 9693, "type" : "VEC3", "max" : [1.0000044107437134, 1.0000044107437134, 0.9991627335548401], "min" : [-1.0000044107437134, -1.0000044107437134, -0.9991627335548401], "name" : "NORMAL"}, {"bufferView" : 4, "byteOffset" : 24, "componentType" : 5126, "count" : 9693, "type" : "VEC2", "max" : [1.4542231559753418, 0.4720696210861206], "min" : [1.006121039390564, 0.023354172706604004], "name" : "TEXCOORD_0"}, {"bufferView" : 0, "byteOffset" : 32544, "componentType" : 5123, "count" : 11112, "type" : "SCALAR", "max" : [9324], "min" : [0]}, {"bufferView" : 5, "byteOffset" : 0, "componentType" : 5126, "count" : 9325, "type" : "VEC3", "max" : [9.84723949432373, 19.989742279052734, 4.372463703155518], "min" : [-9.84724235534668, 0.010257720947265625, -4.351665496826172], "name" : "POSITION"}, {"bufferView" : 5, "byteOffset" : 12, "componentType" : 5126, "count" : 9325, "type" : "VEC3", "max" : [1.0000044107437134, 1.0000044107437134, 0.9997755289077759], "min" : [-1.0000044107437134, -1.0000044107437134, -1.0000044107437134], "name" : "NORMAL"}, {"bufferView" : 5, "byteOffset" : 24, "componentType" : 5126, "count" : 9325, "type" : "VEC2", "max" : [0.9910253286361694, 0.9928566813468933], "min" : [0.012691140174865723, 0.00825202465057373], "name" : "TEXCOORD_0"}, {"bufferView" : 0, "byteOffset" : 54768, "componentType" : 5123, "count" : 7872, "type" : "SCALAR", "max" : [6668], "min" : [0]}, {"bufferView" : 6, "byteOffset" : 0, "componentType" : 5126, "count" : 6669, "type" : "VEC3", "max" : [4.430061340332031, 13.14826774597168, 5.5521345138549805], "min" : [-4.444632530212402, 9.491263389587402, 3.9489293098449707], "name" : "POSITION"}, {"bufferView" : 6, "byteOffset" : 12, "componentType" : 5126, "count" : 6669, "type" : "VEC3", "max" : [0.9994273781776428, 0.9971637725830078, 0.9998171925544739], "min" : [-0.9994977116584778, -0.9975652694702148, -0.9985054135322571], "name" : "NORMAL"}, {"bufferView" : 6, "byteOffset" : 24, "componentType" : 5126, "count" : 6669, "type" : "VEC2", "max" : [0.9312700033187866, 0.465939998626709], "min" : [0.06222100183367729, 0.03511923551559448], "name" : "TEXCOORD_0"}, {"bufferView" : 0, "byteOffset" : 70512, "componentType" : 5123, "count" : 3120, "type" : "SCALAR", "max" : [2623], "min" : [0]}, {"bufferView" : 7, "byteOffset" : 0, "componentType" : 5126, "count" : 2624, "type" : "VEC3", "max" : [4.3848066329956055, 13.085333824157715, 5.534170627593994], "min" : [-4.399662494659424, 9.546001434326172, 4.047596454620361], "name" : "POSITION"}, {"bufferView" : 7, "byteOffset" : 12, "componentType" : 5126, "count" : 2624, "type" : "VEC3", "max" : [0.5865010619163513, 0.2691592872142792, 0.9892177581787109], "min" : [-0.5753332376480103, -0.10790784657001495, 0.8053016662597656], "name" : "NORMAL"}, {"bufferView" : 7, "byteOffset" : 24, "componentType" : 5126, "count" : 2624, "type" : "VEC2", "max" : [0.9884600043296814, 0.8585429787635803], "min" : [0.051530998200178146, 0.48225700855255127], "name" : "TEXCOORD_0"}], "asset" : {"generator" : "Aspose.3D 22.12", "version" : "2.0"}, "buffers" : [{"uri" : "data:application/octet-stream;base64,", "byteLength" : 1304816}], "bufferViews" : [{"buffer" : 0, "byteOffset" : 0, "byteLength" : 76752, "target" : 34963}, {"buffer" : 0, "byteOffset" : 76756, "byteLength" : 50688, "byteStride" : 32, "target" : 34962}, {"buffer" : 0, "byteOffset" : 127448, "byteLength" : 50688, "byteStride" : 32, "target" : 34962}, {"buffer" : 0, "byteOffset" : 178140, "byteLength" : 50688, "byteStride" : 32, "target" : 34962}, {"buffer" : 0, "byteOffset" : 228832, "byteLength" : 368640, "byteStride" : 32, "target" : 34962}, {"buffer" : 0, "byteOffset" : 597476, "byteLength" : 355584, "byteStride" : 32, "target" : 34962}, {"buffer" : 0, "byteOffset" : 953064, "byteLength" : 251904, "byteStride" : 32, "target" : 34962}, {"buffer" : 0, "byteOffset" : 1204972, "byteLength" : 99840, "byteStride" : 32, "target" : 34962}], "images" : [{"uri" : "data:image/png;base64,"}, {"uri" : "data:image/png;base64,"}, {"uri" : "data:image/png;base64,"}, {"uri" : "data:image/png;base64,"}, {"uri" : "data:image/png;base64,"}, {"uri" : "data:image/png;base64,"}, {"uri" : "data:image/png;base64,"}, {"uri" : "data:image/png;base64,"}, {"uri" : "data:image/png;base64,"}, {"uri" : "data:image/png;base64,"}, {"uri" : "data:image/png;base64,"}, {"uri" : "data:image/png;base64,"}, {"uri" : "data:image/png;base64,"}, {"uri" : "data:image/png;base64,"}, {"uri" : "data:image/png;base64,"}, {"uri" : "data:image/png;base64,"}, {"uri" : "data:image/png;base64,"}], "materials" : [{"name" : "", "extensions" : {"KHR_materials_pbrSpecularGlossiness" : {"diffuseFactor" : [1, 1, 1, 1], "diffuseTexture" : {"index" : 0, "texCoord" : 0}, "specularFactor" : [1, 1, 1], "glossinessFactor" : 1, "specularGlossinessTexture" : {"index" : 1, "texCoord" : 0, "scale" : 1}}}, "pbrMetallicRoughness" : {"baseColorFactor" : [1, 1, 1, 1], "baseColorTexture" : {"index" : 2, "texCoord" : 0}, "metallicFactor" : 1, "roughnessFactor" : 1, "metallicRoughnessTexture" : {"index" : 3, "texCoord" : 0}}, "emissiveFactor" : [0, 0, 0], "alphaMode" : "OPAQUE", "doubleSided" : true}, {"name" : "", "extensions" : {"KHR_materials_pbrSpecularGlossiness" : {"diffuseFactor" : [1, 1, 1, 1], "diffuseTexture" : {"index" : 4, "texCoord" : 0}, "specularFactor" : [1, 1, 1], "glossinessFactor" : 1, "specularGlossinessTexture" : {"index" : 5, "texCoord" : 0, "scale" : 1}}}, "pbrMetallicRoughness" : {"baseColorFactor" : [1, 1, 1, 1], "baseColorTexture" : {"index" : 6, "texCoord" : 0}, "metallicFactor" : 1, "roughnessFactor" : 1, "metallicRoughnessTexture" : {"index" : 7, "texCoord" : 0}}, "emissiveFactor" : [0, 0, 0], "alphaMode" : "OPAQUE", "doubleSided" : true}, {"name" : "", "extensions" : {"KHR_materials_pbrSpecularGlossiness" : {"diffuseFactor" : [1, 1, 1, 1], "diffuseTexture" : {"index" : 4, "texCoord" : 0}, "specularFactor" : [1, 1, 1], "glossinessFactor" : 1, "specularGlossinessTexture" : {"index" : 5, "texCoord" : 0, "scale" : 1}}}, "pbrMetallicRoughness" : {"baseColorFactor" : [1, 1, 1, 1], "baseColorTexture" : {"index" : 6, "texCoord" : 0}, "metallicFactor" : 1, "roughnessFactor" : 1, "metallicRoughnessTexture" : {"index" : 7, "texCoord" : 0}}, "emissiveFactor" : [0, 0, 0], "alphaMode" : "OPAQUE", "doubleSided" : true}, {"name" : "", "extensions" : {"KHR_materials_pbrSpecularGlossiness" : {"diffuseFactor" : [1, 1, 1, 1], "diffuseTexture" : {"index" : 8, "texCoord" : 0}, "specularFactor" : [1, 1, 1], "glossinessFactor" : 1, "specularGlossinessTexture" : {"index" : 1, "texCoord" : 0, "scale" : 1}}}, "pbrMetallicRoughness" : {"baseColorFactor" : [1, 1, 1, 1], "baseColorTexture" : {"index" : 9, "texCoord" : 0}, "metallicFactor" : 1, "roughnessFactor" : 1, "metallicRoughnessTexture" : {"index" : 10, "texCoord" : 0}}, "emissiveFactor" : [0, 0, 0], "alphaMode" : "OPAQUE", "doubleSided" : true}, {"name" : "", "extensions" : {"KHR_materials_pbrSpecularGlossiness" : {"diffuseFactor" : [1, 1, 1, 1], "diffuseTexture" : {"index" : 11, "texCoord" : 0}, "specularFactor" : [0, 0, 0], "glossinessFactor" : 0}}, "pbrMetallicRoughness" : {"baseColorFactor" : [1, 1, 1, 1], "baseColorTexture" : {"index" : 12, "texCoord" : 0}, "metallicFactor" : 1, "roughnessFactor" : 1, "metallicRoughnessTexture" : {"index" : 13, "texCoord" : 0}}, "emissiveFactor" : [0, 0, 0], "alphaMode" : "OPAQUE", "doubleSided" : true}, {"name" : "", "extensions" : {"KHR_materials_pbrSpecularGlossiness" : {"diffuseFactor" : [1, 1, 1, 1], "diffuseTexture" : {"index" : 14, "texCoord" : 0}, "specularFactor" : [1, 1, 1], "glossinessFactor" : 1, "specularGlossinessTexture" : {"index" : 1, "texCoord" : 0, "scale" : 1}}}, "pbrMetallicRoughness" : {"baseColorFactor" : [1, 1, 1, 1], "baseColorTexture" : {"index" : 15, "texCoord" : 0}, "metallicFactor" : 1, "roughnessFactor" : 1, "metallicRoughnessTexture" : {"index" : 16, "texCoord" : 0}}, "emissiveFactor" : [0, 0, 0], "alphaMode" : "OPAQUE", "doubleSided" : true}, {"name" : "", "extensions" : {"KHR_materials_pbrSpecularGlossiness" : {"diffuseFactor" : [1, 1, 1, 1], "diffuseTexture" : {"index" : 4, "texCoord" : 0}, "specularFactor" : [1, 1, 1], "glossinessFactor" : 1, "specularGlossinessTexture" : {"index" : 5, "texCoord" : 0, "scale" : 1}}}, "pbrMetallicRoughness" : {"baseColorFactor" : [1, 1, 1, 1], "baseColorTexture" : {"index" : 6, "texCoord" : 0}, "metallicFactor" : 1, "roughnessFactor" : 1, "metallicRoughnessTexture" : {"index" : 7, "texCoord" : 0}}, "emissiveFactor" : [0, 0, 0], "alphaMode" : "OPAQUE", "doubleSided" : true}], "meshes" : [{"primitives" : [{"attributes" : {"POSITION" : 1, "NORMAL" : 2, "TEXCOORD_0" : 3}, "indices" : 0, "material" : 0, "mode" : 4}]}, {"primitives" : [{"attributes" : {"POSITION" : 5, "NORMAL" : 6, "TEXCOORD_0" : 7}, "indices" : 4, "material" : 1, "mode" : 4}]}, {"primitives" : [{"attributes" : {"POSITION" : 9, "NORMAL" : 10, "TEXCOORD_0" : 11}, "indices" : 8, "material" : 2, "mode" : 4}]}, {"primitives" : [{"attributes" : {"POSITION" : 13, "NORMAL" : 14, "TEXCOORD_0" : 15}, "indices" : 12, "material" : 3, "mode" : 4}]}, {"primitives" : [{"attributes" : {"POSITION" : 17, "NORMAL" : 18, "TEXCOORD_0" : 19}, "indices" : 16, "material" : 4, "mode" : 4}]}, {"primitives" : [{"attributes" : {"POSITION" : 21, "NORMAL" : 22, "TEXCOORD_0" : 23}, "indices" : 20, "material" : 5, "mode" : 4}]}, {"primitives" : [{"attributes" : {"POSITION" : 25, "NORMAL" : 26, "TEXCOORD_0" : 27}, "indices" : 24, "material" : 6, "mode" : 4}]}], "nodes" : [{"matrix" : [17.57208824157715, 0, 0, 0, 0, 17.57208824157715, 0, 0, 0, 0, 17.57208824157715, 0, 5.23689050169196E-05, -175.72085571289062, 688.13525390625, 1], "mesh" : 0, "name" : "node_id82"}, {"matrix" : [17.57208824157715, 0, 0, 0, 0, 17.57208824157715, 0, 0, 0, 0, 17.57208824157715, 0, 5.23689050169196E-05, -175.72085571289062, 688.13525390625, 1], "mesh" : 1, "name" : "node_id84"}, {"matrix" : [17.57208824157715, 0, 0, 0, 0, 17.57208824157715, 0, 0, 0, 0, 17.57208824157715, 0, 5.23689050169196E-05, -175.72085571289062, 688.13525390625, 1], "mesh" : 2, "name" : "node_id86"}, {"matrix" : [17.57208824157715, 0, 0, 0, 0, 17.57208824157715, 0, 0, 0, 0, 17.57208824157715, 0, 5.23689050169196E-05, -175.72085571289062, 688.13525390625, 1], "mesh" : 3, "name" : "node_id88"}, {"matrix" : [17.57208824157715, 0, 0, 0, 0, 17.57208824157715, 0, 0, 0, 0, 17.57208824157715, 0, 5.23689050169196E-05, -175.72085571289062, 688.13525390625, 1], "mesh" : 4, "name" : "node_id90"}, {"matrix" : [17.57208824157715, 0, 0, 0, 0, 17.57208824157715, 0, 0, 0, 0, 17.57208824157715, 0, 5.23689050169196E-05, -175.72085571289062, 688.13525390625, 1], "mesh" : 5, "name" : "node_id92"}, {"matrix" : [17.57208824157715, 0, 0, 0, 0, 17.57208824157715, 0, 0, 0, 0, 17.57208824157715, 0, 5.23689050169196E-05, -175.72085571289062, 688.13525390625, 1], "mesh" : 6, "name" : "node_id94"}, {"children" : [0, 1, 2, 3, 4, 5, 6], "matrix" : [0.0010000000474974513, 0, 0, 0, 0, 0.0010000000474974513, 0, 0, 0, 0, 0.0010000000474974513, 0, 0.11168793588876724, 0.01167984027415514, 0, 1], "name" : "node_id96"}, {"children" : [7], "name" : "root"}], "samplers" : [{"magFilter" : 9728, "minFilter" : 9985, "wrapS" : 10497, "wrapT" : 10497}, {"magFilter" : 9728, "minFilter" : 9985, "wrapS" : 10497, "wrapT" : 10497}, {"magFilter" : 9728, "minFilter" : 9985, "wrapS" : 10497, "wrapT" : 10497}, {"magFilter" : 9728, "minFilter" : 9985, "wrapS" : 10497, "wrapT" : 10497}, {"magFilter" : 9728, "minFilter" : 9985, "wrapS" : 10497, "wrapT" : 10497}, {"magFilter" : 9728, "minFilter" : 9985, "wrapS" : 10497, "wrapT" : 10497}, {"magFilter" : 9728, "minFilter" : 9985, "wrapS" : 10497, "wrapT" : 10497}, {"magFilter" : 9728, "minFilter" : 9985, "wrapS" : 10497, "wrapT" : 10497}, {"magFilter" : 9728, "minFilter" : 9985, "wrapS" : 10497, "wrapT" : 10497}, {"magFilter" : 9728, "minFilter" : 9985, "wrapS" : 10497, "wrapT" : 10497}, {"magFilter" : 9728, "minFilter" : 9985, "wrapS" : 10497, "wrapT" : 10497}, {"magFilter" : 9728, "minFilter" : 9985, "wrapS" : 10497, "wrapT" : 10497}, {"magFilter" : 9728, "minFilter" : 9985, "wrapS" : 10497, "wrapT" : 10497}, {"magFilter" : 9728, "minFilter" : 9985, "wrapS" : 10497, "wrapT" : 10497}, {"magFilter" : 9728, "minFilter" : 9985, "wrapS" : 10497, "wrapT" : 10497}, {"magFilter" : 9728, "minFilter" : 9985, "wrapS" : 10497, "wrapT" : 10497}, {"magFilter" : 9728, "minFilter" : 9985, "wrapS" : 10497, "wrapT" : 10497}], "scene" : 0, "scenes" : [{"nodes" : [8]}], "textures" : [{"sampler" : 0, "source" : 0, "name" : ""}, {"sampler" : 1, "source" : 1, "name" : ""}, {"sampler" : 2, "source" : 2, "name" : ""}, {"sampler" : 3, "source" : 3, "name" : ""}, {"sampler" : 4, "source" : 4, "name" : ""}, {"sampler" : 5, "source" : 5, "name" : ""}, {"sampler" : 6, "source" : 6, "name" : ""}, {"sampler" : 7, "source" : 7, "name" : ""}, {"sampler" : 8, "source" : 8, "name" : ""}, {"sampler" : 9, "source" : 9, "name" : ""}, {"sampler" : 10, "source" : 10, "name" : ""}, {"sampler" : 11, "source" : 11, "name" : ""}, {"sampler" : 12, "source" : 12, "name" : ""}, {"sampler" : 13, "source" : 13, "name" : ""}, {"sampler" : 14, "source" : 14, "name" : ""}, {"sampler" : 15, "source" : 15, "name" : ""}, {"sampler" : 16, "source" : 16, "name" : ""}]}